<svg width="100" height="76" viewBox="0 0 100 76" fill="none" xmlns="http://www.w3.org/2000/svg">
<path d="M28.1396 9.54712H87.0288C87.8508 9.54712 88.6392 9.87355 89.2204 10.4548C89.8017 11.036 90.1282 11.8242 90.1282 12.6462L90.1282 24.2577" stroke="#07354A" stroke-width="3.5" stroke-linecap="round" stroke-linejoin="round"/>
<path d="M90.1278 47.5037L90.1278 57.5882C90.1278 61.0119 87.3525 63.7868 83.9289 63.7868H26.5895C23.1659 63.7868 20.3906 61.0119 20.3906 57.5882V7.99729C20.3906 4.57365 23.1659 1.79834 26.5895 1.79834H91.6775C95.1011 1.79834 97.8764 4.57365 97.8764 7.99729V54.6089C97.8763 56.4348 96.8447 58.1039 95.2116 58.9206" stroke="#07354A" stroke-width="3.5" stroke-linecap="round" stroke-linejoin="round"/>
<path d="M97.8767 26.594L90.1281 29.6935H74.631C73.8169 29.6935 73.0109 29.8538 72.2588 30.1654C71.5067 30.4769 70.8233 30.9332 70.2477 31.5088C69.6721 32.0844 69.2155 32.768 68.904 33.5201C68.5925 34.2722 68.4321 35.0784 68.4321 35.8924C68.4321 37.5365 69.0853 39.1128 70.2478 40.2753C71.4103 41.4378 72.987 42.091 74.631 42.091H90.1281L97.8767 38.9915" stroke="#07354A" stroke-width="3.5" stroke-linejoin="round"/>
<path d="M76.1805 35.8923C76.1805 36.3033 76.0172 36.6974 75.7266 36.988C75.4359 37.2786 75.0418 37.4416 74.6308 37.4416C74.2198 37.4416 73.8256 37.2786 73.535 36.988C73.2443 36.6974 73.0811 36.3033 73.0811 35.8923C73.0811 35.4813 73.2443 35.0868 73.535 34.7962C73.8256 34.5056 74.2198 34.3425 74.6308 34.3425C75.0418 34.3425 75.4359 34.5056 75.7266 34.7962C76.0172 35.0868 76.1805 35.4813 76.1805 35.8923Z" fill="black"/>
<path d="M44.0491 52.5047C44.0491 64.2774 34.6036 73.7916 22.9882 73.7916C11.3728 73.7916 1.92725 64.2774 1.92725 52.5047C1.92725 40.7319 11.3728 31.2178 22.9882 31.2178C34.6036 31.2178 44.0491 40.7319 44.0491 52.5047Z" fill="#1285BA" stroke="#07354A" stroke-width="3.5"/>
<line x1="16.5605" y1="52.9277" x2="28.5548" y2="52.9277" stroke="#EAF8FF" stroke-width="3.5" stroke-linecap="round"/>
<line x1="22.5293" y1="59.0129" x2="22.5293" y2="46.8652" stroke="#EAF8FF" stroke-width="3.5" stroke-linecap="round"/>
</svg>
