<svg width="95" height="76" viewBox="0 0 95 76" fill="none" xmlns="http://www.w3.org/2000/svg">
<path d="M23.1396 9.54712H82.0288C82.8508 9.54712 83.6392 9.87355 84.2204 10.4548C84.8017 11.036 85.1282 11.8242 85.1282 12.6462L85.1282 24.2577" stroke="#07354A" stroke-width="3.5" stroke-linecap="round" stroke-linejoin="round"/>
<path d="M85.1278 47.5037L85.1278 57.5882C85.1278 61.0119 82.3525 63.7868 78.9289 63.7868H21.5895C18.1659 63.7868 15.3906 61.0119 15.3906 57.5882V7.99729C15.3906 4.57365 18.1659 1.79834 21.5895 1.79834H86.6775C90.1011 1.79834 92.8764 4.57365 92.8764 7.99729V54.6089C92.8763 56.4348 91.8447 58.1039 90.2116 58.9206" stroke="#07354A" stroke-width="3.5" stroke-linecap="round" stroke-linejoin="round"/>
<path d="M92.8762 26.594L85.1276 29.6935H69.6305C68.8165 29.6935 68.0104 29.8538 67.2583 30.1654C66.5062 30.4769 65.8228 30.9332 65.2472 31.5088C64.6716 32.0844 64.215 32.768 63.9035 33.5201C63.592 34.2722 63.4316 35.0784 63.4316 35.8924C63.4317 37.5365 64.0848 39.1128 65.2473 40.2753C66.4098 41.4378 67.9865 42.091 69.6305 42.091H85.1276L92.8762 38.9915" stroke="#07354A" stroke-width="3.5" stroke-linejoin="round"/>
<path d="M71.1805 35.8923C71.1805 36.3033 71.0172 36.6974 70.7266 36.988C70.4359 37.2786 70.0418 37.4416 69.6308 37.4416C69.2198 37.4416 68.8256 37.2786 68.535 36.988C68.2443 36.6974 68.0811 36.3033 68.0811 35.8923C68.0811 35.4813 68.2443 35.0868 68.535 34.7962C68.8256 34.5056 69.2198 34.3425 69.6308 34.3425C70.0418 34.3425 70.4359 34.5056 70.7266 34.7962C71.0172 35.0868 71.1805 35.4813 71.1805 35.8923Z" fill="#07354A"/>
<rect x="9.8457" y="52.3645" width="16.3004" height="19.4889" fill="#EAF8FF"/>
<path d="M35.9904 58.4174C35.9904 56.1371 36.0287 53.8181 35.9522 51.5377C35.914 49.9917 35.0736 49.0642 33.5836 48.8323H33.5454H24.3V48.7936C22.1988 48.7936 20.0593 48.7936 17.9581 48.7936H9.36218C8.6363 48.7936 8.5981 48.755 8.5981 48.0206C8.5981 46.2427 8.52169 44.4262 8.6363 42.6483C8.78912 39.6722 10.2027 37.3533 12.5331 35.614C16.9266 32.3288 23.3449 33.6815 26.0574 38.4741C26.4394 39.1698 26.7451 39.8655 26.9743 40.5998C27.3181 41.798 28.4642 42.6096 29.6868 42.6096C31.4824 42.6096 32.8195 40.9477 32.5139 39.1698C32.4375 38.7833 32.3993 38.4741 32.3229 38.3195C31.979 37.3146 31.5206 36.3484 30.9475 35.4208C28.6553 31.7877 25.3697 29.3914 21.129 28.4251C20.7088 28.3092 20.2504 28.2705 19.7537 28.1932C19.3335 28.1546 18.875 28.1159 18.3784 28H17.6143C16.4299 28.1932 15.322 28.3092 14.2523 28.5797C8.6363 30.203 4.8923 33.8748 3.32593 39.5949C2.79107 41.5661 2.90568 43.6145 2.90568 45.6243V48.755C2.60005 48.7936 2.37083 48.8709 2.1034 48.9096C0.880865 49.1415 0.00217048 50.2623 0.00217048 51.4991V65.529C0.00217048 67.6547 0.0403746 69.8191 0.00217048 71.9448C-0.0360336 73.8 0.422416 74.6117 1.98878 75.2687H34.0802C34.9971 74.9209 35.6466 74.3025 35.8758 73.2589C36.0287 72.5246 35.9904 71.7516 35.9904 70.9786V58.4174ZM20.747 63.094C20.2504 63.4805 20.0975 63.867 20.0975 64.4081C20.1357 65.7222 20.1357 67.075 20.1357 68.3891C20.0975 69.5099 19.5627 70.2829 18.684 70.5535C17.8435 70.8627 17.0412 70.6694 16.4681 69.9351C16.2389 69.6259 16.0479 69.2394 16.0097 68.8529C15.9333 68.0026 15.9715 67.1136 15.9715 66.2633H15.9333V65.5676C15.9715 64.3695 15.8187 63.4419 14.749 62.5143C13.068 61.1229 12.877 58.7653 13.9085 56.8714C14.9018 55.0935 17.003 54.0113 18.9514 54.4751C20.8998 54.9003 22.237 56.1371 22.6572 58.1469C23.0775 60.1567 22.3898 61.8572 20.747 63.094Z" fill="#1285BA"/>
</svg>
