<svg width="96" height="77" viewBox="0 0 96 77" fill="none" xmlns="http://www.w3.org/2000/svg">
<path d="M24.1396 9.54712H83.0288C83.8508 9.54712 84.6392 9.87355 85.2204 10.4548C85.8017 11.036 86.1282 11.8242 86.1282 12.6462L86.1282 24.2577" stroke="#07354A" stroke-width="3.5" stroke-linecap="round" stroke-linejoin="round"/>
<path d="M86.1278 47.5037L86.1278 57.5882C86.1278 61.0119 83.3525 63.7868 79.9289 63.7868H22.5895C19.1659 63.7868 16.3906 61.0119 16.3906 57.5882V7.99729C16.3906 4.57365 19.1659 1.79834 22.5895 1.79834H87.6775C91.1011 1.79834 93.8764 4.57365 93.8764 7.99729V54.6089C93.8763 56.4348 92.8447 58.1039 91.2116 58.9206" stroke="#07354A" stroke-width="3.5" stroke-linecap="round" stroke-linejoin="round"/>
<path d="M93.8762 26.594L86.1276 29.6935H70.6305C69.8165 29.6935 69.0104 29.8538 68.2583 30.1654C67.5062 30.4769 66.8228 30.9332 66.2472 31.5088C65.6716 32.0844 65.215 32.768 64.9035 33.5201C64.592 34.2722 64.4316 35.0784 64.4316 35.8924C64.4317 37.5365 65.0848 39.1128 66.2473 40.2753C67.4098 41.4378 68.9865 42.091 70.6305 42.091H86.1276L93.8762 38.9915" stroke="#07354A" stroke-width="3.5" stroke-linejoin="round"/>
<path d="M72.1805 35.8923C72.1805 36.3033 72.0172 36.6974 71.7266 36.988C71.4359 37.2786 71.0418 37.4416 70.6308 37.4416C70.2198 37.4416 69.8256 37.2786 69.535 36.988C69.2443 36.6974 69.0811 36.3033 69.0811 35.8923C69.0811 35.4813 69.2443 35.0868 69.535 34.7962C69.8256 34.5056 70.2198 34.3425 70.6308 34.3425C71.0418 34.3425 71.4359 34.5056 71.7266 34.7962C72.0172 35.0868 72.1805 35.4813 72.1805 35.8923Z" fill="#07354A"/>
<path d="M24.0643 31H6.21089C4.0722 31 2.39844 32.7124 2.39844 34.9004V70.8601C2.39844 73.0481 4.0722 74.7605 6.21089 74.7605H32.9911C35.1297 74.7605 36.8035 73.0481 36.8035 70.8601V44.033L24.0643 31Z" fill="#1285BA" stroke="#07354A" stroke-width="3" stroke-miterlimit="10" stroke-linejoin="round"/>
<rect x="7.83301" y="40.0115" width="5.68064" height="4.15119" rx="1" fill="#EAF8FF"/>
<rect x="25.6875" y="40.0115" width="5.68064" height="4.15119" fill="#07354A"/>
<rect x="16.7598" y="40.0115" width="5.68064" height="4.15119" rx="1" fill="#EAF8FF"/>
<rect x="7.83301" y="47.4836" width="5.68064" height="4.15119" rx="1" fill="#EAF8FF"/>
<rect x="25.6875" y="47.4836" width="5.68064" height="4.15119" rx="1" fill="#EAF8FF"/>
<rect x="16.7598" y="47.4836" width="5.68064" height="4.15119" rx="1" fill="#EAF8FF"/>
<rect x="7.83301" y="54.9558" width="5.68064" height="4.15119" rx="1" fill="#EAF8FF"/>
<rect x="25.6875" y="54.9558" width="5.68064" height="4.15119" rx="1" fill="#EAF8FF"/>
<rect x="16.7598" y="54.9558" width="5.68064" height="4.15119" rx="1" fill="#EAF8FF"/>
<rect x="7.83301" y="62.428" width="5.68064" height="4.15119" rx="1" fill="#EAF8FF"/>
<rect x="25.6875" y="62.428" width="5.68064" height="4.15119" rx="1" fill="#EAF8FF"/>
<rect x="16.7598" y="62.428" width="5.68064" height="4.15119" rx="1" fill="#EAF8FF"/>
<path d="M24.0635 40.1326C24.0635 42.3206 25.7372 44.033 27.8759 44.033H36.8027L24.0635 31V40.1326Z" fill="#1285BA" stroke="#07354A" stroke-width="3" stroke-miterlimit="10" stroke-linejoin="round"/>
</svg>
